# xmcd
#
# Track frame offsets: 
#        150
#        24637
#        39038
#        50513
#        63638
#        78649
#        91972
#        121823
#        139551
#        153314
#        168397
#        181972
#        192972
#        206631
#        229379
#        242869
#        262149
#        280137
#        291835
#
# Disc length: 4210 seconds
#
# Revision: 0
# Processed by: cddbd v1.5.2PL0 Copyright (c) Steve Scherf et al.
# Submitted via: ExactAudioCopy v0.99pb4
#
DISCID=13107013
DTITLE=Swamp Dogg - The Excellent Sides of Swamp Dogg Vol. 5
DYEAR=1976
DGENRE=Soul
TTITLE0=Sweetest Thing in California
TTITLE1=The Other Man
TTITLE2=I Can Stand the Lonely Days (But I Can't Stand the Lonely Nigh
TTITLE2=ts)
TTITLE3=Dyn-o-mite
TTITLE4=You Ain't Never Too Old To Boogie
TTITLE5=Sure Love to Ball (And You Do Too)
TTITLE6=Believe In Me Baby
TTITLE7=It's a Bitch
TTITLE8=I Had a Ball
TTITLE9=Don't Give Up
TTITLE10=Mercy Mercy
TTITLE11=Your Wonderful Love
TTITLE12=Complication #4
TTITLE13=That's My Wife
TTITLE14=If You're Leaving (Take Me With You)
TTITLE15=Wifebeater
TTITLE16=He Don't Like Country Music (And He Hates Little Kids)
TTITLE17=When I Fell (Why Did I Fall In Love With You)
TTITLE18=Same Train Twice
EXTD=
EXTT0=
EXTT1=
EXTT2=
EXTT3=
EXTT4=
EXTT5=
EXTT6=
EXTT7=
EXTT8=
EXTT9=
EXTT10=
EXTT11=
EXTT12=
EXTT13=
EXTT14=
EXTT15=
EXTT16=
EXTT17=
EXTT18=
PLAYORDER=
